<?xml version="1.0" encoding="utf-8"?>
<!-- Generator: Adobe Illustrator 24.3.0, SVG Export Plug-In . SVG Version: 6.00 Build 0)  -->
<svg version="1.1" id="Layer_1" xmlns="http://www.w3.org/2000/svg" xmlns:xlink="http://www.w3.org/1999/xlink" x="0px" y="0px"
	 viewBox="0 0 1000 1000" style="enable-background:new 0 0 1000 1000;" xml:space="preserve">
<style type="text/css">
	.st0{fill:#276193;}
	.st1{fill:#FB8733;}
	.st2{fill:#FFFFFF;}
</style>
<g>
	<g>
		<g>
			<g>
				<path class="st0" d="M248.32,563.42h-77.35v-3.64h13.82v-89.94h-13.82v-3.64h46.07v3.64h-14.52v89.94h18.01
					c8.47,0,14.66-2.57,18.57-7.71c4-5.04,6.14-12.18,6.42-21.39h4.33L248.32,563.42z"/>
				<path class="st0" d="M378.31,563.42c-1.95,1.46-4.47,2.18-7.54,2.18c-3.54,0-6.14-0.97-7.82-2.91
					c-1.86-2.13-2.93-4.56-3.21-7.28c-3.26,3.69-6.56,6.31-9.91,7.86c-3.63,1.65-7.17,2.47-10.61,2.47c-4.56,0-8.1-1.75-10.61-5.24
					c-2.51-3.59-3.77-8.05-3.77-13.39c0-6.79,1.95-12.23,5.86-16.3c3.91-4.17,8.98-6.84,15.22-8c1.02-0.19,2.09-0.34,3.21-0.44
					c1.12-0.1,2.28-0.19,3.49-0.29c1.21-0.1,2.37-0.15,3.49-0.15c1.21,0,2.42,0,3.63,0v-23.72c0-2.52-0.98-4.66-2.93-6.4
					c-2.14-1.75-4.28-2.62-6.42-2.62c-2.61,0-4.89,0.49-6.84,1.46c-2.14,1.07-3.21,2.04-3.21,2.91c0,0.2,0.37,1.07,1.12,2.62
					c0.84,1.65,1.26,3.49,1.26,5.53c-0.37,4.17-2.75,6.26-7.12,6.26c-4.47,0-6.75-2.18-6.84-6.55c-0.09-4.17,1.95-7.76,6.14-10.77
					c4.19-2.91,9.68-4.37,16.47-4.37c6.33,0,11.73,1.65,16.2,4.95c4.28,3.3,6.42,7.62,6.42,12.95v52.1c0,0.97,0.28,1.65,0.84,2.04
					c0.65,0.58,1.49,0.87,2.51,0.87c0.74,0,1.63-0.44,2.65-1.31c0.46-0.48,0.91-0.9,1.33-1.24c0.42-0.34,0.72-0.6,0.91-0.8
					l1.68,2.04C382.12,560.02,380.26,561.87,378.31,563.42z M359.74,528.63c-1.4-1.07-2.84-1.94-4.33-2.62
					c-0.75-0.29-1.54-0.44-2.37-0.44c-1.03,0-2.23,0.15-3.63,0.44c-3.17,0.87-5.58,2.67-7.26,5.38c-1.77,2.72-2.65,6.45-2.65,11.21
					c0,4.56,0.7,8.35,2.09,11.35c1.4,3.01,3.63,4.51,6.7,4.51c3.44,0,6.19-2.08,8.24-6.26c2.14-4.27,3.21-9.12,3.21-14.55V528.63z"
					/>
				<path class="st0" d="M429.69,563.42v-3.64h8.8v-44.82c0-3.78-0.12-7.13-0.35-10.04c-0.23-2.91-0.58-5.34-1.05-7.28
					c-1.03-4.07-3.12-6.11-6.28-6.11c-4,0-7.59,2.96-10.75,8.88c-3.26,6.02-4.89,14.55-4.89,25.61v33.76h8.8v3.64h-33.09v-3.64h9.49
					v-68.98h-9.49v-3.64l24.29-0.73v13.83c2.42-5.14,5.49-8.73,9.22-10.77c3.72-2.13,7.58-3.2,11.59-3.2
					c6.14,0,10.56,2.47,13.26,7.42c2.6,4.85,3.91,12.13,3.91,21.83v44.24h8.94v3.64H429.69z"/>
				<path class="st0" d="M559.95,556.58c-5.49,6.02-12.52,9.02-21.08,9.02c-4.1,0-7.68-0.63-10.75-1.89
					c-3.54-1.36-6.61-3.2-9.21-5.53l-6.7,6.11h-2.37v-28.96h4.05c1.4,7.28,4.23,13.53,8.52,18.77c4.28,5.24,9.91,7.86,16.89,7.86
					c5.96,0,10.94-1.94,14.94-5.82c4.09-3.98,6.14-8.78,6.14-14.41c0-6.11-2.28-10.62-6.84-13.53c-4.84-3.01-10.89-5.53-18.15-7.57
					c-8.75-2.42-15.08-5.97-18.99-10.62c-3.91-4.75-5.86-10.96-5.86-18.63c0-7.95,2.37-14.5,7.12-19.65
					c4.93-5.14,11.03-7.71,18.29-7.71c3.91,0,7.54,0.58,10.89,1.75c3.35,1.16,6.47,2.96,9.35,5.38l5.31-5.68h2.65v27.51h-4.47
					c-0.84-7.18-3.4-13.24-7.68-18.19c-4.28-4.75-9.73-7.13-16.34-7.13c-4.75,0-8.84,1.65-12.29,4.95
					c-3.44,3.3-5.17,7.23-5.17,11.79c0,5.53,1.77,9.12,5.31,10.77c3.63,1.84,8.89,3.69,15.78,5.53c10.89,2.91,18.38,6.74,22.48,11.5
					c4.19,4.95,6.28,11.89,6.28,20.81C568.05,542.8,565.35,550.66,559.95,556.58z"/>
				<path class="st0" d="M629.9,563.42c-1.95,1.46-4.47,2.18-7.54,2.18c-3.54,0-6.14-0.97-7.82-2.91c-1.86-2.13-2.93-4.56-3.21-7.28
					c-3.26,3.69-6.56,6.31-9.91,7.86c-3.63,1.65-7.17,2.47-10.61,2.47c-4.56,0-8.1-1.75-10.61-5.24c-2.51-3.59-3.77-8.05-3.77-13.39
					c0-6.79,1.96-12.23,5.86-16.3c3.91-4.17,8.98-6.84,15.22-8c1.02-0.19,2.09-0.34,3.21-0.44c1.12-0.1,2.28-0.19,3.49-0.29
					c1.21-0.1,2.37-0.15,3.49-0.15c1.21,0,2.42,0,3.63,0v-23.72c0-2.52-0.98-4.66-2.93-6.4c-2.14-1.75-4.28-2.62-6.42-2.62
					c-2.61,0-4.89,0.49-6.84,1.46c-2.14,1.07-3.21,2.04-3.21,2.91c0,0.2,0.37,1.07,1.12,2.62c0.84,1.65,1.26,3.49,1.26,5.53
					c-0.37,4.17-2.75,6.26-7.12,6.26c-4.47,0-6.75-2.18-6.84-6.55c-0.09-4.17,1.95-7.76,6.14-10.77c4.19-2.91,9.68-4.37,16.48-4.37
					c6.33,0,11.73,1.65,16.2,4.95c4.28,3.3,6.42,7.62,6.42,12.95v52.1c0,0.97,0.28,1.65,0.84,2.04c0.65,0.58,1.49,0.87,2.51,0.87
					c0.74,0,1.63-0.44,2.65-1.31c0.46-0.48,0.91-0.9,1.33-1.24c0.42-0.34,0.72-0.6,0.91-0.8l1.68,2.04
					C633.71,560.02,631.85,561.87,629.9,563.42z M611.33,528.63c-1.4-1.07-2.84-1.94-4.33-2.62c-0.75-0.29-1.54-0.44-2.37-0.44
					c-1.03,0-2.23,0.15-3.63,0.44c-3.17,0.87-5.59,2.67-7.26,5.38c-1.77,2.72-2.65,6.45-2.65,11.21c0,4.56,0.7,8.35,2.09,11.35
					c1.4,3.01,3.63,4.51,6.7,4.51c3.44,0,6.19-2.08,8.24-6.26c2.14-4.27,3.21-9.12,3.21-14.55V528.63z"/>
				<path class="st0" d="M690.77,503.89h-0.56c-4.56,0-6.98-2.13-7.26-6.4l0.56-4.8c0-0.29-0.09-0.53-0.28-0.73
					c-0.19,0-0.33-0.02-0.42-0.07c-0.09-0.05-0.23-0.07-0.42-0.07c-3.63,0-6.98,3.88-10.05,11.64c-3.07,7.86-4.61,16.88-4.61,27.07
					v29.25h12.57v3.64h-35.88v-3.64h8.24v-68.98h-9.21v-3.64l24.01-0.73v16.15c2.98-5.82,6.05-9.94,9.21-12.37
					c3.35-2.62,7.03-3.93,11.03-3.93c3.44,0,6.09,0.92,7.96,2.77c1.95,1.94,2.93,4.27,2.93,6.99
					C698.4,501.27,695.8,503.89,690.77,503.89z"/>
				<path class="st0" d="M754.72,563.42c-1.95,1.46-4.47,2.18-7.54,2.18c-3.54,0-6.14-0.97-7.82-2.91
					c-1.86-2.13-2.93-4.56-3.21-7.28c-3.26,3.69-6.56,6.31-9.91,7.86c-3.63,1.65-7.17,2.47-10.61,2.47c-4.56,0-8.1-1.75-10.61-5.24
					c-2.51-3.59-3.77-8.05-3.77-13.39c0-6.79,1.96-12.23,5.86-16.3c3.91-4.17,8.98-6.84,15.22-8c1.02-0.19,2.09-0.34,3.21-0.44
					c1.12-0.1,2.28-0.19,3.49-0.29c1.21-0.1,2.37-0.15,3.49-0.15c1.21,0,2.42,0,3.63,0v-23.72c0-2.52-0.98-4.66-2.93-6.4
					c-2.14-1.75-4.28-2.62-6.42-2.62c-2.61,0-4.89,0.49-6.84,1.46c-2.14,1.07-3.21,2.04-3.21,2.91c0,0.2,0.37,1.07,1.12,2.62
					c0.84,1.65,1.26,3.49,1.26,5.53c-0.37,4.17-2.75,6.26-7.12,6.26c-4.47,0-6.75-2.18-6.84-6.55c-0.09-4.17,1.95-7.76,6.14-10.77
					c4.19-2.91,9.68-4.37,16.48-4.37c6.33,0,11.73,1.65,16.2,4.95c4.28,3.3,6.42,7.62,6.42,12.95v52.1c0,0.97,0.28,1.65,0.84,2.04
					c0.65,0.58,1.49,0.87,2.51,0.87c0.74,0,1.63-0.44,2.65-1.31c0.46-0.48,0.91-0.9,1.33-1.24c0.42-0.34,0.72-0.6,0.91-0.8
					l1.68,2.04C758.53,560.02,756.67,561.87,754.72,563.42z M736.15,528.63c-1.4-1.07-2.84-1.94-4.33-2.62
					c-0.75-0.29-1.54-0.44-2.37-0.44c-1.03,0-2.23,0.15-3.63,0.44c-3.17,0.87-5.59,2.67-7.26,5.38c-1.77,2.72-2.65,6.45-2.65,11.21
					c0,4.56,0.7,8.35,2.09,11.35c1.4,3.01,3.63,4.51,6.7,4.51c3.44,0,6.19-2.08,8.24-6.26c2.14-4.27,3.21-9.12,3.21-14.55V528.63z"
					/>
				<path class="st0" d="M797.3,561.52c-2.61,2.72-6.75,4.08-12.43,4.08c-5.21,0-8.84-0.87-10.89-2.62
					c-2.23-1.75-3.35-4.8-3.35-9.17v-62.29h-8.94v-4.37h8.94v-12.22l15.08-3.78v16.01h13.12v4.37h-13.12v62
					c0,2.23,0.37,3.88,1.12,4.95c0.84,0.97,2.23,1.46,4.19,1.46c2.33,0,4.14-0.73,5.45-2.18c1.4-1.46,2.47-3.3,3.21-5.53l2.79,1.46
					C801.82,556.19,800.09,558.81,797.3,561.52z"/>
				<path class="st0" d="M841.56,563.42v-3.64h8.8v-44.82c0-7.76-0.47-13.54-1.4-17.32c-1.03-4.07-3.07-6.11-6.14-6.11
					c-3.91,0-7.45,2.96-10.61,8.88c-3.26,6.02-4.89,14.55-4.89,25.61v33.76h8.38v3.64h-32.95v-3.64h9.49v-89.94h-10.05v-3.64
					c2.7,0,5.1-0.02,7.19-0.07c2.09-0.05,3.89-0.12,5.38-0.22c1.49-0.19,3.28-0.44,5.38-0.73c2.09-0.29,4.49-0.68,7.19-1.16v36.24
					c2.42-5.14,5.49-8.73,9.21-10.77c3.72-2.13,7.54-3.2,11.45-3.2c6.23,0,10.7,2.47,13.4,7.42c2.7,5.05,4.05,12.32,4.05,21.83
					v44.24h9.22v3.64H841.56z"/>
				<path class="st0" d="M878.28,563.42v-3.64h10.47v-68.98H878.7v-3.64l25.13-0.73v73.35h10.19v3.64H878.28z M901.88,477.7
					c-1.58,1.65-3.44,2.47-5.58,2.47c-2.14,0-4-0.82-5.59-2.47c-1.58-1.65-2.37-3.59-2.37-5.82c0-2.33,0.79-4.32,2.37-5.97
					c1.58-1.65,3.44-2.47,5.59-2.47c2.14,0,4,0.83,5.58,2.47c1.58,1.65,2.37,3.59,2.37,5.82
					C904.25,474.06,903.46,476.05,901.88,477.7z"/>
			</g>
		</g>
		<path class="st1" d="M195.07,610.07c-60.15,0-109.09-50.25-109.09-112.01c0-61.77,48.94-112.03,109.09-112.03
			c47.15,0,88.78,30.86,103.59,76.79l0.84,2.61h-4.52l-0.46-1.35c-13.97-40.68-51.57-68.01-93.56-68.01
			c-54.71,0-99.21,45.75-99.21,101.98c0,56.22,44.51,101.97,99.21,101.97c24.37,0,47.8-9.17,65.98-25.82l0.57-0.53h8.17l-3.29,3.39
			C251.77,598.35,224.31,610.07,195.07,610.07z"/>
		<path class="st1" d="M296.75,463.44h-0.35c-13.88-40.4-51.37-69.36-95.45-69.36c-55.89,0-101.21,46.56-101.21,103.98
			c0,57.42,45.32,103.97,101.21,103.97c25.85,0,49.44-9.96,67.33-26.35h2.67c-19.38,20.01-46.22,32.39-75.88,32.39
			c-59.14,0-107.09-49.26-107.09-110.01c0-60.77,47.95-110.03,107.09-110.03C242.45,388.03,282.63,419.63,296.75,463.44z"/>
		<path class="st0" d="M288.46,486.28c-17.41,0-31.51,17.76-31.51,39.66c0,21.91,14.1,39.66,31.51,39.66
			c17.4,0,31.51-17.76,31.51-39.66C319.97,504.04,305.86,486.28,288.46,486.28z M280.27,503.7c0.41-0.14,0.82-0.32,1.22-0.5
			c0.4-0.17,0.8-0.37,1.32-0.61c0.52,1.13,1.04,2.25,1.56,3.38c0.06-0.04,0.12-0.07,0.18-0.11c-0.24-0.98-0.43-1.99-0.74-2.94
			c-0.33-1.03-0.05-1.71,0.6-2.3c1.38-1.29,3-1.63,4.62-1.42c1.27,0.16,2.53,0.71,3.76,1.23c0.8,0.34,1.09,1.2,0.85,2.27
			c-0.24,1.02-0.47,2.04-0.54,3.16c0.46-0.98,0.92-1.97,1.44-3.09c0.98,0.44,2,0.84,2.97,1.39c0.19,0.11,0.32,0.92,0.21,1.25
			c-0.3,0.87-0.68,1.74-1.17,2.48c-1.03,1.6-2.15,3.12-3.25,4.71c-3.33-2.22-6.58-2.11-9.88,0.04c-1.33-2.18-2.71-4.27-3.94-6.5
			C278.66,504.66,278.89,504.19,280.27,503.7z M293.75,515.93c-0.09,0.19-0.52,0.22-0.76,0.15c-0.38-0.12-0.73-0.38-1.09-0.61
			c-2.45-1.58-4.86-1.46-7.27,0.15c-0.48,0.32-1.07,0.96-1.49,0.11c-0.42-0.83,0.2-1.37,0.68-1.82c1.38-1.26,2.95-1.79,4.62-1.88
			c1.65,0.08,3.17,0.59,4.52,1.77c0.31,0.28,0.62,0.66,0.81,1.07C293.89,515.15,293.88,515.66,293.75,515.93z M297.44,551.31
			c-0.96,0.52-1.96,0.92-3.01,1.26c2.59-1.83,4.66-4.24,5.66-7.89c-2.87,5-6.76,8.04-11.6,8.06c-4.84,0.03-8.69-3.08-11.59-8.08
			c0.4,2.46,1.81,4.44,5.48,7.8c-4.99-1.22-10.15-6.16-9.38-14.16c0.52-5.44,2.6-9.99,5.23-14.12c1.48-2.33,3.24-4.44,5.09-6.3
			c3.31-3.35,6.71-3.41,10.12-0.2c4.75,4.47,8.17,10.24,9.96,17.4C305.19,542.28,302.94,548.31,297.44,551.31z"/>
		<g>
			<g>
				<g>
					<path class="st0" d="M286.12,535.85c-0.89,0.25-1.8,0.26-2.71,0.21c-0.2-0.01-0.41,0-0.64-0.06v2.15
						c0.67,1.06,1.37,2.16,2.07,3.26c1.03,1.62,2.06,3.25,3.1,4.87h2.99c-1.72-2.75-3.43-5.51-5.15-8.26
						c-0.03-0.05-0.06-0.11-0.11-0.19c0.37-0.07,0.71-0.13,1.06-0.23c1.11-0.32,2.14-0.85,3.02-1.77c0.86-0.9,1.4-2.03,1.58-3.42
						c0.01-0.05,0.02-0.1,0.03-0.19h2.13c0.39-0.75,0.76-1.47,1.13-2.2l-3.23,0c-0.03-0.44-0.16-0.85-0.33-1.23
						c-0.17-0.38-0.39-0.72-0.64-1.07h3.06c0.03-0.04,0.05-0.07,0.07-0.1c0.34-0.66,0.68-1.33,1.02-1.99
						c0.02-0.04,0.05-0.08,0.05-0.14l-8.38,0c-0.39,0.05-0.79,0.02-1.18,0.02c-0.57,0.01-1.14,0-1.72,0c-0.4,0.74-0.8,1.47-1.2,2.21
						v0.04c0.95-0.05,1.9-0.07,2.85,0.01c0.84,0.08,1.68,0.21,2.45,0.69c0.47,0.29,0.84,0.7,1.11,1.26c0.03,0.06,0.05,0.12,0.1,0.23
						c-1.78-0.03-3.54-0.06-5.3-0.1c-0.36,0.76-0.72,1.51-1.1,2.31l6.67,0c-0.01,0.22-0.05,0.4-0.09,0.58
						C288.43,534.46,287.51,535.47,286.12,535.85z"/>
				</g>
			</g>
		</g>
	</g>
	<path class="st0" d="M894.25,613.97H296.16c-9.39,0-17-7.61-17-17v0c0-9.39,7.61-17,17-17h598.09c9.39,0,17,7.61,17,17v0
		C911.25,606.36,903.64,613.97,894.25,613.97z"/>
	<g>
		<path class="st2" d="M305.36,600.69h0.77c0.56,1.73,1.45,3.16,2.67,4.3c1.22,1.14,2.68,1.72,4.38,1.72c1.15,0,2.1-0.37,2.85-1.1
			s1.12-1.64,1.12-2.71c0-0.42-0.05-0.83-0.16-1.23c-0.29-1.02-0.85-1.84-1.67-2.45c-0.82-0.61-2.1-1.42-3.85-2.43
			c-1.75-1.01-3.04-1.99-3.88-2.94c-0.84-0.94-1.26-2.15-1.26-3.61c0-1.66,0.58-3.02,1.73-4.08c1.15-1.06,2.58-1.59,4.29-1.59
			c0.96,0,1.96,0.19,3.03,0.57s1.68,0.57,1.86,0.57c0.51,0,0.89-0.38,1.13-1.13h0.72l0.78,7.22H319c-0.25-1.06-0.67-2.03-1.26-2.92
			c-0.59-0.89-1.3-1.6-2.14-2.12c-0.84-0.52-1.76-0.78-2.78-0.78c-1.07,0-1.93,0.28-2.58,0.85c-0.65,0.57-0.97,1.36-0.97,2.39
			c0,1.43,1.2,2.86,3.61,4.27c2.25,1.37,3.8,2.33,4.64,2.9c0.84,0.57,1.56,1.29,2.17,2.16c0.61,0.88,0.91,1.95,0.91,3.22
			c0,1.67-0.65,3.12-1.94,4.37c-1.29,1.24-3.03,1.87-5.22,1.87c-0.7,0-1.33-0.07-1.88-0.2c-0.55-0.13-1.18-0.31-1.9-0.54
			c-0.72-0.23-1.23-0.34-1.53-0.34c-0.6,0-0.95,0.36-1.03,1.08h-0.72L305.36,600.69z"/>
		<path class="st2" d="M340.83,596.58c0-0.92-0.14-1.53-0.41-1.83c-0.27-0.3-0.84-0.45-1.7-0.45v-0.57l4.99-1.75v2.21
			c0,0.21,0.05,0.31,0.15,0.31c0.07,0,0.16-0.05,0.26-0.15s0.23-0.23,0.38-0.38s0.27-0.29,0.39-0.4c1.44-1.06,2.82-1.6,4.12-1.6
			c0.86,0,1.61,0.27,2.25,0.8c0.64,0.54,1.06,1.23,1.26,2.07c0.67-0.78,1.49-1.45,2.46-2.02c0.97-0.57,1.9-0.85,2.78-0.85
			c1.82,0,2.99,0.58,3.53,1.73s0.8,2.74,0.8,4.76v6.34c0,0.75,0.16,1.3,0.47,1.64c0.31,0.34,0.86,0.55,1.65,0.62v0.46h-7.15v-0.46
			c0.82-0.08,1.39-0.28,1.7-0.62c0.31-0.34,0.47-0.89,0.47-1.64v-6.9c0-1.63-0.18-2.73-0.53-3.29c-0.36-0.56-1.07-0.84-2.14-0.84
			c-1.52,0-2.74,0.69-3.66,2.06v8.96c0,0.75,0.16,1.3,0.47,1.64c0.31,0.34,0.88,0.55,1.69,0.62v0.46h-7.15v-0.46
			c0.8-0.08,1.35-0.28,1.65-0.62c0.31-0.34,0.46-0.89,0.46-1.64v-7.05c0-1.21-0.14-2.17-0.42-2.89s-0.91-1.08-1.89-1.08
			c-0.75,0-1.49,0.19-2.23,0.56c-0.74,0.37-1.32,0.86-1.74,1.45v9.01c0,0.75,0.16,1.3,0.47,1.64c0.31,0.34,0.88,0.55,1.69,0.62v0.46
			h-7.15v-0.46c0.8-0.08,1.35-0.28,1.65-0.62c0.31-0.34,0.46-0.89,0.46-1.64V596.58z"/>
		<path class="st2" d="M392.62,604.91c0,0.72,0.24,1.08,0.73,1.08c0.46,0,1.06-0.27,1.8-0.82v0.92c-0.33,0.39-0.77,0.79-1.33,1.2
			c-0.56,0.41-1.04,0.61-1.45,0.61c-1.58,0-2.41-0.88-2.48-2.63c-1.89,1.75-3.53,2.63-4.94,2.63c-1,0-1.85-0.35-2.55-1.06
			c-0.7-0.7-1.06-1.55-1.06-2.55c0-0.95,0.28-1.78,0.84-2.5s1.27-1.33,2.12-1.82c0.85-0.49,1.76-0.92,2.72-1.28
			c0.96-0.36,1.86-0.71,2.72-1.04c0-1.88-0.16-3.16-0.48-3.86c-0.32-0.7-0.98-1.04-2-1.04c-0.42,0-0.85,0.08-1.31,0.25
			c-0.45,0.16-0.75,0.39-0.9,0.69c-0.07,0.1-0.1,0.31-0.1,0.62c0,0.13,0.01,0.36,0.02,0.67c0.02,0.31,0.03,0.55,0.03,0.73
			c0,0.39-0.15,0.73-0.46,1.04c-0.31,0.31-0.65,0.46-1.04,0.46c-0.99,0-1.48-0.46-1.48-1.4c0-0.48,0.12-0.91,0.35-1.28
			c0.91-1.68,2.69-2.53,5.35-2.53c1.85,0,3.13,0.43,3.83,1.29c0.7,0.86,1.06,2.35,1.06,4.48V604.91z M389.74,598.58
			c-0.72,0.26-1.38,0.5-1.97,0.72c-0.59,0.22-1.14,0.48-1.66,0.79c-0.52,0.3-0.94,0.7-1.28,1.19c-0.34,0.49-0.5,1.1-0.5,1.84
			c0,0.8,0.21,1.47,0.63,1.99c0.42,0.52,1.01,0.79,1.78,0.79c0.36,0,0.91-0.17,1.64-0.5s1.18-0.67,1.35-0.99V598.58z"/>
		<path class="st2" d="M413.32,597.4c0-1.26-0.09-2.12-0.28-2.59c-0.19-0.47-0.54-0.7-1.06-0.7c-0.38,0-0.77,0.07-1.18,0.2v-0.51
			l5.41-1.8v3.04c0.47-0.78,1.05-1.48,1.73-2.11s1.4-0.94,2.14-0.94c1.27,0,1.9,0.74,1.9,2.21c-0.1,0.72-0.56,1.08-1.38,1.08
			c-0.26,0-0.47-0.05-0.63-0.14c-0.16-0.09-0.36-0.25-0.6-0.46s-0.42-0.36-0.55-0.45c-0.13-0.09-0.3-0.13-0.49-0.13
			c-0.33,0-0.77,0.32-1.31,0.97c-0.54,0.64-0.8,1.2-0.8,1.66v8.08c0,0.77,0.18,1.32,0.53,1.65c0.36,0.33,1.04,0.53,2.04,0.61v0.46
			h-7.98v-0.46c0.98-0.08,1.65-0.28,2-0.61c0.35-0.33,0.53-0.88,0.53-1.65V597.4z"/>
		<path class="st2" d="M442.72,602.6c0,2.33,0.5,3.5,1.5,3.5c0.33,0,0.66-0.07,0.97-0.2c0.39-0.15,0.83-0.5,1.29-1.03l0.42,0.36
			c-1.35,1.79-2.81,2.68-4.38,2.68c-1.09,0-1.81-0.35-2.16-1.04s-0.52-1.93-0.52-3.7v-9.78h-1.03c-0.4,0-0.65-0.02-0.74-0.06
			c-0.09-0.04-0.14-0.18-0.14-0.4c0.61-0.44,1.16-0.92,1.66-1.42c0.49-0.5,1.09-1.19,1.79-2.05c0.7-0.86,1.15-1.41,1.34-1.63v4.49
			h3.34v1.08h-3.34V602.6z"/>
		<path class="st2" d="M489.48,607.54v-0.67c1.99,0,2.98-0.69,2.98-2.06v-17.05c0-1.38-0.99-2.06-2.98-2.06v-0.67h9.42v0.67
			c-1.99,0-2.98,0.69-2.98,2.06v17.05c0,0.89,1.13,1.33,3.39,1.33c1.89,0,3.35-0.08,4.39-0.25c1.04-0.16,1.96-0.57,2.78-1.22
			c0.81-0.65,1.5-1.67,2.05-3.06h0.88l-1.65,5.92H489.48z"/>
		<path class="st2" d="M541.23,599.46c0,1.49-0.31,2.88-0.94,4.18s-1.51,2.33-2.67,3.11c-1.15,0.77-2.49,1.16-4.02,1.16
			c-2.11,0-3.86-0.76-5.24-2.29c-1.38-1.53-2.07-3.36-2.07-5.49c0-1.52,0.29-2.9,0.86-4.14s1.42-2.22,2.53-2.93
			c1.11-0.71,2.42-1.07,3.93-1.07c1.48,0,2.8,0.31,3.95,0.94s2.05,1.51,2.7,2.65C540.91,596.71,541.23,598.01,541.23,599.46z
			 M538.09,601.05c0-2-0.38-3.84-1.13-5.52c-0.75-1.68-2.01-2.51-3.76-2.51c-1.19,0-2.11,0.49-2.77,1.48s-0.99,2.24-0.99,3.78
			c0,2.52,0.41,4.59,1.24,6.19c0.83,1.6,2.01,2.41,3.54,2.41c1.25,0,2.2-0.57,2.87-1.7S538.09,602.67,538.09,601.05z"/>
		<path class="st2" d="M570.22,604.91c0,0.72,0.24,1.08,0.73,1.08c0.46,0,1.06-0.27,1.8-0.82v0.92c-0.33,0.39-0.77,0.79-1.33,1.2
			c-0.56,0.41-1.04,0.61-1.45,0.61c-1.58,0-2.41-0.88-2.48-2.63c-1.89,1.75-3.53,2.63-4.94,2.63c-1,0-1.85-0.35-2.55-1.06
			s-1.06-1.55-1.06-2.55c0-0.95,0.28-1.78,0.84-2.5s1.27-1.33,2.12-1.82c0.86-0.49,1.76-0.92,2.72-1.28
			c0.96-0.36,1.86-0.71,2.71-1.04c0-1.88-0.16-3.16-0.48-3.86c-0.32-0.7-0.98-1.04-2-1.04c-0.42,0-0.85,0.08-1.31,0.25
			c-0.45,0.16-0.75,0.39-0.91,0.69c-0.07,0.1-0.1,0.31-0.1,0.62c0,0.13,0.01,0.36,0.03,0.67c0.02,0.31,0.02,0.55,0.02,0.73
			c0,0.39-0.15,0.73-0.46,1.04c-0.31,0.31-0.65,0.46-1.04,0.46c-0.99,0-1.48-0.46-1.48-1.4c0-0.48,0.12-0.91,0.35-1.28
			c0.91-1.68,2.69-2.53,5.36-2.53c1.85,0,3.13,0.43,3.83,1.29c0.7,0.86,1.06,2.35,1.06,4.48V604.91z M567.34,598.58
			c-0.72,0.26-1.38,0.5-1.97,0.72c-0.59,0.22-1.14,0.48-1.66,0.79c-0.52,0.3-0.94,0.7-1.28,1.19s-0.5,1.1-0.5,1.84
			c0,0.8,0.21,1.47,0.63,1.99c0.42,0.52,1.01,0.79,1.79,0.79c0.36,0,0.91-0.17,1.64-0.5c0.73-0.33,1.18-0.67,1.35-0.99V598.58z"/>
		<path class="st2" d="M590.72,596.52c0-1.09-0.12-1.77-0.35-2.05c-0.23-0.28-0.84-0.42-1.81-0.42v-0.46l5.04-1.6v2.73
			c1.61-1.82,3.34-2.73,5.2-2.73c2.64,0,3.96,1.82,3.96,5.46v7.37c0,0.75,0.15,1.3,0.46,1.64c0.31,0.34,0.86,0.55,1.65,0.62v0.46
			h-7.15v-0.46c0.82-0.08,1.39-0.28,1.7-0.62c0.31-0.34,0.46-0.89,0.46-1.64v-7.32c0-1.2-0.16-2.12-0.49-2.75s-1.02-0.96-2.09-0.96
			c-1.24,0-2.48,0.65-3.71,1.96v9.06c0,0.75,0.15,1.3,0.46,1.64c0.31,0.34,0.86,0.55,1.65,0.62v0.46h-7.15v-0.46
			c0.82-0.08,1.39-0.28,1.7-0.62c0.31-0.34,0.46-0.89,0.46-1.64V596.52z"/>
		<path class="st2" d="M668.68,591.79h-0.78c-1.39-3.91-3.9-5.87-7.52-5.87c-1.8,0-3.31,0.47-4.53,1.41
			c-1.22,0.94-2.12,2.21-2.69,3.82c-0.57,1.61-0.86,3.44-0.86,5.48c0,2.8,0.75,5.16,2.26,7.09s3.62,2.89,6.34,2.89
			c1.49,0,2.76-0.24,3.81-0.72c0.48-0.26,0.76-0.48,0.85-0.65c0.09-0.18,0.13-0.52,0.13-1.04v-5.05c0-1.12-0.17-1.91-0.51-2.36
			c-0.34-0.45-1.17-0.67-2.48-0.67v-0.68h8.71v0.68c-1.02,0-1.68,0.23-1.98,0.68c-0.3,0.46-0.45,1.24-0.45,2.34v6.44
			c-1.06,0.61-2.43,1.17-4.09,1.67c-1.66,0.5-3.15,0.75-4.46,0.75c-2.01,0-3.94-0.43-5.79-1.29c-1.85-0.86-3.35-2.17-4.51-3.93
			c-1.16-1.76-1.74-3.9-1.74-6.41c0-2.2,0.5-4.21,1.5-6.01c1-1.8,2.38-3.22,4.16-4.24s3.76-1.54,5.98-1.54
			c1.09,0,2.33,0.19,3.72,0.57c1.39,0.38,2.23,0.57,2.51,0.57c0.68,0,1.16-0.38,1.45-1.13h0.72L668.68,591.79z"/>
		<path class="st2" d="M701.62,603.47c0,0.96,0.12,1.6,0.37,1.91c0.24,0.31,0.83,0.46,1.75,0.46v0.47c-0.78,0.23-2.38,0.77-4.79,1.6
			v-2.94l-0.72,0.78c-1.27,1.44-2.71,2.16-4.32,2.16c-1.32,0-2.32-0.43-2.97-1.29c-0.66-0.86-0.99-2.04-0.99-3.55v-7.78
			c0-1.04-0.13-1.71-0.39-2.01s-0.85-0.45-1.77-0.45v-0.51h5.04v10.6c0,2,0.84,2.99,2.53,2.99c0.85,0,1.75-0.36,2.68-1.08
			c0.31-0.26,0.51-0.53,0.59-0.82c0.08-0.29,0.13-0.81,0.13-1.55v-7.1c0-0.76-0.05-1.31-0.15-1.64s-0.33-0.56-0.67-0.69
			c-0.35-0.12-0.9-0.19-1.65-0.19v-0.51h5.35V603.47z"/>
		<path class="st2" d="M723.25,596.58c0-0.98-0.07-1.66-0.22-2.02c-0.15-0.37-0.45-0.55-0.91-0.55c-0.27,0-0.75,0.08-1.45,0.25
			v-0.46l5.47-1.8v12.82c0,0.77,0.18,1.32,0.53,1.65c0.36,0.33,1.03,0.53,2.03,0.61v0.46h-8.03v-0.46c1.01-0.08,1.69-0.28,2.04-0.61
			c0.36-0.33,0.53-0.88,0.53-1.65V596.58z M722.69,586.12c0-0.49,0.17-0.9,0.51-1.24c0.34-0.34,0.75-0.51,1.24-0.51
			c0.47,0,0.87,0.17,1.21,0.5s0.5,0.75,0.5,1.24c0,0.48-0.17,0.88-0.5,1.21s-0.74,0.49-1.21,0.49c-0.49,0-0.9-0.17-1.24-0.5
			C722.86,586.99,722.69,586.59,722.69,586.12z"/>
		<path class="st2" d="M759.2,604.5c0,0.41,0.16,0.68,0.47,0.8c0.31,0.12,0.91,0.18,1.79,0.18v0.57c-1.79,0.5-3.51,1.16-5.14,1.96
			v-2.53c-0.46,0.72-1.09,1.31-1.89,1.75s-1.61,0.67-2.45,0.67c-1.33,0-2.48-0.35-3.44-1.06c-0.96-0.7-1.68-1.63-2.16-2.79
			c-0.48-1.16-0.72-2.38-0.72-3.67c0-1.37,0.3-2.69,0.9-3.99c0.6-1.29,1.45-2.35,2.54-3.17s2.33-1.24,3.71-1.24
			c0.8,0,1.51,0.15,2.15,0.44c0.64,0.29,1.09,0.6,1.36,0.91v-4.85c0-0.67-0.04-1.13-0.13-1.38c-0.08-0.25-0.27-0.42-0.56-0.5
			s-0.8-0.12-1.54-0.12v-0.62c1.77-0.44,2.75-0.7,2.94-0.78l2.16-0.72V604.5z M756.33,597.35c0-1.31-0.3-2.35-0.89-3.14
			c-0.59-0.79-1.48-1.18-2.67-1.18c-0.9,0-1.66,0.3-2.29,0.9c-0.63,0.6-1.1,1.38-1.41,2.36c-0.31,0.97-0.47,2-0.47,3.08
			c0,2.16,0.43,3.85,1.3,5.07c0.87,1.22,2.01,1.83,3.44,1.83c0.88,0,1.6-0.29,2.16-0.85c0.56-0.57,0.84-1.18,0.84-1.82V597.35z"/>
		<path class="st2" d="M789.74,604.91c0,0.72,0.24,1.08,0.73,1.08c0.46,0,1.06-0.27,1.8-0.82v0.92c-0.33,0.39-0.77,0.79-1.33,1.2
			c-0.56,0.41-1.04,0.61-1.45,0.61c-1.58,0-2.41-0.88-2.48-2.63c-1.89,1.75-3.53,2.63-4.94,2.63c-1,0-1.85-0.35-2.55-1.06
			s-1.06-1.55-1.06-2.55c0-0.95,0.28-1.78,0.84-2.5s1.27-1.33,2.12-1.82c0.86-0.49,1.76-0.92,2.72-1.28
			c0.96-0.36,1.86-0.71,2.71-1.04c0-1.88-0.16-3.16-0.48-3.86c-0.32-0.7-0.98-1.04-2-1.04c-0.42,0-0.85,0.08-1.31,0.25
			c-0.45,0.16-0.75,0.39-0.91,0.69c-0.07,0.1-0.1,0.31-0.1,0.62c0,0.13,0.01,0.36,0.03,0.67c0.02,0.31,0.02,0.55,0.02,0.73
			c0,0.39-0.15,0.73-0.46,1.04c-0.31,0.31-0.65,0.46-1.04,0.46c-0.99,0-1.48-0.46-1.48-1.4c0-0.48,0.12-0.91,0.35-1.28
			c0.91-1.68,2.69-2.53,5.36-2.53c1.85,0,3.13,0.43,3.83,1.29c0.7,0.86,1.06,2.35,1.06,4.48V604.91z M786.86,598.58
			c-0.72,0.26-1.38,0.5-1.97,0.72c-0.59,0.22-1.14,0.48-1.66,0.79c-0.52,0.3-0.94,0.7-1.28,1.19s-0.5,1.1-0.5,1.84
			c0,0.8,0.21,1.47,0.63,1.99c0.42,0.52,1.01,0.79,1.79,0.79c0.36,0,0.91-0.17,1.64-0.5c0.73-0.33,1.18-0.67,1.35-0.99V598.58z"/>
		<path class="st2" d="M810.24,596.52c0-1.09-0.12-1.77-0.35-2.05c-0.23-0.28-0.84-0.42-1.81-0.42v-0.46l5.04-1.6v2.73
			c1.61-1.82,3.34-2.73,5.2-2.73c2.64,0,3.96,1.82,3.96,5.46v7.37c0,0.75,0.15,1.3,0.46,1.64c0.31,0.34,0.86,0.55,1.65,0.62v0.46
			h-7.15v-0.46c0.82-0.08,1.39-0.28,1.7-0.62c0.31-0.34,0.46-0.89,0.46-1.64v-7.32c0-1.2-0.16-2.12-0.49-2.75s-1.02-0.96-2.09-0.96
			c-1.24,0-2.48,0.65-3.71,1.96v9.06c0,0.75,0.15,1.3,0.46,1.64c0.31,0.34,0.86,0.55,1.65,0.62v0.46h-7.15v-0.46
			c0.82-0.08,1.39-0.28,1.7-0.62c0.31-0.34,0.46-0.89,0.46-1.64V596.52z"/>
		<path class="st2" d="M854.21,602.5c-0.81,1.68-1.75,3.01-2.8,3.97c-1.06,0.96-2.39,1.44-4,1.44c-1.19,0-2.27-0.34-3.25-1.02
			c-0.98-0.68-1.74-1.61-2.29-2.78c-0.55-1.17-0.83-2.44-0.83-3.83c0-2.35,0.67-4.31,2-5.9c1.34-1.59,3.21-2.38,5.61-2.38
			c0.7,0,1.44,0.12,2.21,0.37c0.77,0.25,1.43,0.62,1.98,1.12c0.55,0.5,0.85,1.1,0.9,1.8c0,0.41-0.16,0.76-0.47,1.06
			c-0.31,0.29-0.67,0.44-1.08,0.44c-0.39,0-0.74-0.15-1.06-0.46c-0.32-0.31-0.48-0.65-0.48-1.04c0-0.7-0.22-1.25-0.65-1.68
			c-0.44-0.42-1.09-0.63-1.96-0.63c-1.38,0-2.46,0.6-3.23,1.8c-0.77,1.2-1.16,2.57-1.16,4.12c0,1.7,0.48,3.22,1.43,4.57
			c0.96,1.34,2.25,2.02,3.87,2.02c1.77,0,3.37-1.1,4.79-3.29L854.21,602.5z"/>
		<path class="st2" d="M873.83,598.18c0.02,1.88,0.51,3.58,1.45,5.11s2.29,2.29,4.06,2.29c1.06,0,2.03-0.34,2.93-1.02
			c0.9-0.68,1.64-1.54,2.22-2.57l0.57,0.2c-0.58,1.63-1.5,2.99-2.77,4.08c-1.27,1.09-2.72,1.64-4.35,1.64
			c-1.89,0-3.43-0.75-4.63-2.25c-1.2-1.5-1.8-3.29-1.8-5.38c0-1.61,0.28-3.04,0.85-4.29s1.37-2.23,2.41-2.94s2.25-1.06,3.65-1.06
			c1.79,0,3.22,0.57,4.29,1.72c1.07,1.15,1.63,2.64,1.68,4.46H873.83z M880.93,597.09c-0.06-1.12-0.35-2.06-0.89-2.8
			c-0.53-0.75-1.32-1.12-2.36-1.12c-2.13,0-3.38,1.31-3.76,3.92H880.93z"/>
	</g>
</g>
</svg>
